<svg width="2537" height="1137" xmlns="http://www.w3.org/2000/svg" xmlns:xlink="http://www.w3.org/1999/xlink" xml:space="preserve" overflow="hidden"><g transform="translate(-271 -431)"><path d="M1677 999.5C1677 685.526 1930.18 431 2242.5 431 2554.82 431 2808 685.526 2808 999.5 2808 1313.47 2554.82 1568 2242.5 1568 1930.18 1568 1677 1313.47 1677 999.5Z" fill="#EAEAEA" fill-rule="evenodd"/><path d="M1992.5 813.5C1992.5 675.429 2104.65 563.5 2243 563.5 2381.35 563.5 2493.5 675.429 2493.5 813.5 2493.5 951.571 2381.35 1063.5 2243 1063.5 2104.65 1063.5 1992.5 951.571 1992.5 813.5Z" stroke="#FFFFFF" stroke-width="9.16667" stroke-linejoin="round" stroke-miterlimit="10" fill="#00B050" fill-rule="evenodd" fill-opacity="0.501961"/><text font-family="Arial,Arial_MSFontService,sans-serif" font-weight="400" font-size="73" transform="matrix(1 0 0 1 2136.39 785)">Health</text><path d="M2173.5 1126C2173.5 987.653 2285.43 875.5 2423.5 875.5 2561.57 875.5 2673.5 987.653 2673.5 1126 2673.5 1264.35 2561.57 1376.5 2423.5 1376.5 2285.43 1376.5 2173.5 1264.35 2173.5 1126Z" stroke="#FFFFFF" stroke-width="9.16667" stroke-linejoin="round" stroke-miterlimit="10" fill="#0F4BEB" fill-rule="evenodd" fill-opacity="0.501961"/><text font-family="Arial,Arial_MSFontService,sans-serif" font-weight="400" font-size="73" transform="matrix(1 0 0 1 2402.57 1164)">SQL</text><path d="M1812.5 1126C1812.5 987.653 1924.43 875.5 2062.5 875.5 2200.57 875.5 2312.5 987.653 2312.5 1126 2312.5 1264.35 2200.57 1376.5 2062.5 1376.5 1924.43 1376.5 1812.5 1264.35 1812.5 1126Z" stroke="#FFFFFF" stroke-width="9.16667" stroke-linejoin="round" stroke-miterlimit="10" fill="#FF0000" fill-rule="evenodd" fill-opacity="0.501961"/><text font-family="Arial,Arial_MSFontService,sans-serif" font-weight="400" font-size="73" transform="matrix(1 0 0 1 1866.19 1164)">Robotics</text><path d="M360.903 693.704 600.382 693.704 600.382 771.704 360.903 771.704Z" fill="#FFFFFF" fill-rule="evenodd"/><path d="M360.903 770.704 895.434 770.704 895.434 848.704 360.903 848.704Z" fill="#FFFFFF" fill-rule="evenodd"/><path d="M895.434 770.704 995.122 770.704 995.122 848.704 895.434 848.704Z" fill="#FFFFFF" fill-rule="evenodd"/><path d="M360.903 847.704 764.809 847.704 764.809 925.704 360.903 925.704Z" fill="#FFFFFF" fill-rule="evenodd"/><path d="M764.809 847.704 1276.42 847.704 1276.42 925.704 764.809 925.704Z" fill="#FFFFFF" fill-rule="evenodd"/><path d="M1276.42 847.704 1306.79 847.704 1306.79 925.704 1276.42 925.704Z" fill="#FFFFFF" fill-rule="evenodd"/><path d="M360.903 924.704 801.476 924.704 801.476 1002.7 360.903 1002.7Z" fill="#FFFFFF" fill-rule="evenodd"/><path d="M801.476 924.704 1039.81 924.704 1039.81 1002.7 801.476 1002.7Z" fill="#FFFFFF" fill-rule="evenodd"/><path d="M1039.81 924.704 1054.13 924.704 1054.13 1002.7 1039.81 1002.7Z" fill="#FFFFFF" fill-rule="evenodd"/><path d="M1054.13 924.704 1167 924.704 1167 1002.7 1054.13 1002.7Z" fill="#FFFFFF" fill-rule="evenodd"/><path d="M360.903 1002.71 626.737 1002.71 626.737 1080.71 360.903 1080.71Z" fill="#FFFFFF" fill-rule="evenodd"/><path d="M626.737 1002.71 1184.76 1002.71 1184.76 1080.71 626.737 1080.71Z" fill="#FFFFFF" fill-rule="evenodd"/><path d="M1184.76 1002.71 1200.8 1002.71 1200.8 1080.71 1184.76 1080.71Z" fill="#FFFFFF" fill-rule="evenodd"/><text fill="#0D0D0D" font-family="Calibri,Calibri_MSFontService,sans-serif" font-weight="400" font-size="64" transform="matrix(1 0 0 1 360.903 755)">Example:</text><text fill="#FF2305" font-family="Calibri,Calibri_MSFontService,sans-serif" font-weight="400" font-size="64" transform="matrix(1 0 0 1 360.903 832)">Automated systems </text><text fill="#0D0D0D" font-family="Calibri,Calibri_MSFontService,sans-serif" font-weight="400" font-size="64" transform="matrix(1 0 0 1 895.434 832)">are </text><text fill="#0D0D0D" font-family="Calibri,Calibri_MSFontService,sans-serif" font-weight="400" font-size="64" transform="matrix(1 0 0 1 360.903 909)">revolutionizing </text><text fill="#00B050" font-family="Calibri,Calibri_MSFontService,sans-serif" font-weight="400" font-size="64" transform="matrix(1 0 0 1 764.809 909)">medical treatments</text><text fill="#0D0D0D" font-family="Calibri,Calibri_MSFontService,sans-serif" font-weight="400" font-size="64" transform="matrix(1 0 0 1 1276.42 909)">, </text><text fill="#0D0D0D" font-family="Calibri,Calibri_MSFontService,sans-serif" font-weight="400" font-size="64" transform="matrix(1 0 0 1 360.903 986)">enabling precise </text><text fill="#E1713F" font-family="Calibri,Calibri_MSFontService,sans-serif" font-weight="400" font-size="64" transform="matrix(1 0 0 1 801.476 986)">surgeries</text><text fill="#0D0D0D" font-family="Calibri,Calibri_MSFontService,sans-serif" font-weight="400" font-size="64" transform="matrix(1 0 0 1 1039.81 986)"> </text><text fill="#0D0D0D" font-family="Calibri,Calibri_MSFontService,sans-serif" font-weight="400" font-size="64" transform="matrix(1 0 0 1 1054.13 986)">and </text><text fill="#0D0D0D" font-family="Calibri,Calibri_MSFontService,sans-serif" font-weight="400" font-size="64" transform="matrix(1 0 0 1 360.903 1064)">advanced </text><text fill="#00B050" font-family="Calibri,Calibri_MSFontService,sans-serif" font-weight="400" font-size="64" transform="matrix(1 0 0 1 626.737 1064)">patient rehabilitation</text><text fill="#0D0D0D" font-family="Calibri,Calibri_MSFontService,sans-serif" font-weight="400" font-size="64" transform="matrix(1 0 0 1 1184.76 1064)">.</text><rect x="355.5" y="777.5" width="534" height="63.9999" stroke="#021A63" stroke-width="1.14583" stroke-linejoin="round" stroke-miterlimit="10" fill="none"/><rect x="756.5" y="859.5" width="553" height="65" stroke="#021A63" stroke-width="1.14583" stroke-linejoin="round" stroke-miterlimit="10" fill="none"/><rect x="622.5" y="1011.5" width="586" height="63.9999" stroke="#021A63" stroke-width="1.14583" stroke-linejoin="round" stroke-miterlimit="10" fill="none"/><rect x="790.5" y="935.5" width="250" height="64.0003" stroke="#021A63" stroke-width="1.14583" stroke-linejoin="round" stroke-miterlimit="10" fill="none"/><path d="M1819.8 1141.3 1537.92 1141.3C1536.97 1141.3 1536.2 1140.53 1536.2 1139.58L1536.2 695 1537.92 696.719 622.5 696.719 624.219 695 624.219 754.583 620.781 754.583 620.781 695C620.781 694.051 621.551 693.281 622.5 693.281L1537.92 693.281C1538.87 693.281 1539.64 694.051 1539.64 695L1539.64 1139.58 1537.92 1137.86 1819.8 1137.86ZM636.25 750 622.5 777.5 608.75 750Z" fill="#FF0000"/><path d="M0 1.71875-82.5 1.71875C-83.4492 1.71875-84.2187 0.949239-84.2187 0L-84.2187-349.381C-84.2187-350.33-83.4492-351.1-82.5-351.1L190.333-351.1C191.282-351.1 192.052-350.33 192.052-349.381L192.052 144.996 188.614 144.996 188.614-349.381 190.333-347.662-82.5-347.662-80.7812-349.381-80.7812 0-82.5-1.71875 0-1.71875ZM204.083 140.413 190.333 167.913 176.583 140.413Z" fill="#FF0000" transform="matrix(1.83697e-16 1 1 -1.83697e-16 622.5 777.5)"/><path d="M0-1.71875 959.063-1.71875C960.012-1.71875 960.782-0.949239 960.782 0L960.782 38.9591 957.344 38.9591 957.344 0 959.063 1.71875 0 1.71875ZM972.813 34.3757 959.063 61.8757 945.313 34.3757Z" fill="#92D050" transform="matrix(-1 1.22465e-16 1.22465e-16 1 1991.56 797.5)"/><path d="M1031.18 859.5 1031.18 797.623C1031.18 796.674 1031.95 795.905 1032.9 795.905L1372.16 795.905C1373.11 795.905 1373.88 796.674 1373.88 797.623L1373.88 1157.42C1373.88 1158.37 1373.11 1159.14 1372.16 1159.14L915.5 1159.14C914.551 1159.14 913.781 1158.37 913.781 1157.42L913.781 1097.83 917.219 1097.83 917.219 1157.42 915.5 1155.7 1372.16 1155.7 1370.44 1157.42 1370.44 797.623 1372.16 799.342 1032.9 799.342 1034.62 797.623 1034.62 859.5ZM901.75 1102.42 915.5 1074.92 929.25 1102.42Z" fill="#92D050"/><text font-family="Arial,Arial_MSFontService,sans-serif" font-weight="400" font-size="64" transform="matrix(1 0 0 1 2105.26 535)">All blocks</text></g></svg>